<?xml version="1.0" standalone="no"?><svg xmlns:xlink="http://www.w3.org/1999/xlink" xmlns="http://www.w3.org/2000/svg" viewBox="0 0 1000 636.3655796928673" preserveAspectRatio="xMaxYMax slice"><g transform="scale(1.6443555030823445)"><rect x="0" y="0" width="608.1428571428571" height="387" fill="#000000"/><path d="M 55.29 0 A 55.29 55.29 0 0 1  110.58 55.29 L 55.29 0 A 55.29 55.29 0 0 0 110.58 55.29" fill="#030301"/><path d="M 442.29 0 A 55.29 55.29 0 0 1  497.58000000000004 55.29 L 442.29 0 A 55.29 55.29 0 0 0 497.58000000000004 55.29" fill="#131304"/><rect x="110.57142857142857" y="55.285714285714285" width="55.285714285714285" height="55.285714285714285" fill="#000000"/><path d="M 110.57 82.93 A 27.64 27.64 0 0 1  138.20999999999998 55.29 L 110.57 82.93 A 27.64 27.64 0 0 0 138.20999999999998 55.29" fill="#986d10"/><path d="M 110.57 82.93 A 27.64 27.64 0 0 1  138.20999999999998 110.57000000000001 L 110.57 82.93 A 27.64 27.64 0 0 0 138.20999999999998 110.57000000000001" fill="#d39716"/><path d="M 165.86 110.58 A 55.29 55.29 0 0 1  221.15 55.29 L 165.86 110.58 A 55.29 55.29 0 0 0 221.15 55.29" fill="#1e1603"/><rect x="276.42857142857144" y="55.285714285714285" width="55.285714285714285" height="55.285714285714285" fill="#000000"/><rect x="442.2857142857143" y="55.285714285714285" width="55.285714285714285" height="55.285714285714285" fill="#000000"/><path d="M 442.29 82.93 A 27.64 27.64 0 0 1  469.93 110.57000000000001 L 442.29 82.93 A 27.64 27.64 0 0 0 469.93 110.57000000000001" fill="#805c0e"/><rect x="55.285714285714285" y="110.57142857142857" width="55.285714285714285" height="55.285714285714285" fill="#000000"/><path d="M 55.29 110.57 A 27.64 27.64 0 0 1  82.93 138.20999999999998 L 55.29 110.57 A 27.64 27.64 0 0 0 82.93 138.20999999999998" fill="#212107"/><path d="M 82.93 138.20999999999998 A 27.64 27.64 0 0 1  110.57000000000001 110.57 L 82.93 138.20999999999998 A 27.64 27.64 0 0 0 110.57000000000001 110.57" fill="#65480b"/><path d="M 55.29 138.21 A 27.64 27.64 0 0 1  82.93 165.85000000000002 L 55.29 138.21 A 27.64 27.64 0 0 0 82.93 165.85000000000002" fill="#956b10"/><path d="M 82.93 165.85000000000002 A 27.64 27.64 0 0 1  110.57000000000001 138.21 L 82.93 165.85000000000002 A 27.64 27.64 0 0 0 110.57000000000001 138.21" fill="#573e09"/><rect x="276.42857142857144" y="110.57142857142857" width="55.285714285714285" height="55.285714285714285" fill="#000000"/><path d="M 304.07 110.57 A 27.64 27.64 0 0 1  331.71 138.20999999999998 L 304.07 110.57 A 27.64 27.64 0 0 0 331.71 138.20999999999998" fill="#1a1a05"/><path d="M 304.07 165.85000000000002 A 27.64 27.64 0 0 1  331.71 138.21 L 304.07 165.85000000000002 A 27.64 27.64 0 0 0 331.71 138.21" fill="#6c6c16"/><path d="M 387 165.85999999999999 A 55.29 55.29 0 0 1  442.29 110.57 L 387 165.85999999999999 A 55.29 55.29 0 0 0 442.29 110.57" fill="#a87912"/><rect x="442.2857142857143" y="110.57142857142857" width="55.285714285714285" height="55.285714285714285" fill="#000000"/><path d="M 469.93 138.20999999999998 A 27.64 27.64 0 0 1  497.57 110.57 L 469.93 138.20999999999998 A 27.64 27.64 0 0 0 497.57 110.57" fill="#523b09"/><path d="M 469.93 165.85000000000002 A 27.64 27.64 0 0 1  497.57 138.21 L 469.93 165.85000000000002 A 27.64 27.64 0 0 0 497.57 138.21" fill="#baba25"/><path d="M 110.57 165.86 A 55.29 55.29 0 0 1  165.85999999999999 221.15 L 110.57 165.86 A 55.29 55.29 0 0 0 165.85999999999999 221.15" fill="#6e6e16"/><rect x="387" y="165.85714285714286" width="55.285714285714285" height="55.285714285714285" fill="#000000"/><path d="M 387 165.86 A 27.64 27.64 0 0 1  414.64 193.5 L 387 165.86 A 27.64 27.64 0 0 0 414.64 193.5" fill="#261b04"/><path d="M 414.64 165.86 A 27.64 27.64 0 0 1  442.28 193.5 L 414.64 165.86 A 27.64 27.64 0 0 0 442.28 193.5" fill="#78560d"/><rect x="0" y="221.14285714285714" width="55.285714285714285" height="55.285714285714285" fill="#000000"/><path d="M 0 248.77999999999997 A 27.64 27.64 0 0 1  27.64 221.14 L 0 248.77999999999997 A 27.64 27.64 0 0 0 27.64 221.14" fill="#0c0c02"/><path d="M 27.64 221.14 A 27.64 27.64 0 0 1  55.28 248.77999999999997 L 27.64 221.14 A 27.64 27.64 0 0 0 55.28 248.77999999999997" fill="#38380b"/><path d="M 27.64 276.43 A 27.64 27.64 0 0 1  55.28 248.79 L 27.64 276.43 A 27.64 27.64 0 0 0 55.28 248.79" fill="#3a3a0c"/><rect x="110.57142857142857" y="221.14285714285714" width="55.285714285714285" height="55.285714285714285" fill="#000000"/><path d="M 110.57 221.14 A 27.64 27.64 0 0 1  138.20999999999998 248.77999999999997 L 110.57 221.14 A 27.64 27.64 0 0 0 138.20999999999998 248.77999999999997" fill="#a57611"/><path d="M 138.21 248.77999999999997 A 27.64 27.64 0 0 1  165.85000000000002 221.14 L 138.21 248.77999999999997 A 27.64 27.64 0 0 0 165.85000000000002 221.14" fill="#d39816"/><path d="M 165.86 221.14 A 55.29 55.29 0 0 1  221.15 276.43 L 165.86 221.14 A 55.29 55.29 0 0 0 221.15 276.43" fill="#463207"/><rect x="221.14285714285714" y="221.14285714285714" width="55.285714285714285" height="55.285714285714285" fill="#000000"/><path d="M 221.14 221.14 A 27.64 27.64 0 0 1  248.77999999999997 248.77999999999997 L 221.14 221.14 A 27.64 27.64 0 0 0 248.77999999999997 248.77999999999997" fill="#835e0e"/><path d="M 221.14 276.43 A 27.64 27.64 0 0 1  248.77999999999997 248.79 L 221.14 276.43 A 27.64 27.64 0 0 0 248.77999999999997 248.79" fill="#5f440a"/><path d="M 248.79 248.79 A 27.64 27.64 0 0 1  276.43 276.43 L 248.79 248.79 A 27.64 27.64 0 0 0 276.43 276.43" fill="#b98414"/><path d="M 0 276.43 A 55.29 55.29 0 0 1  55.29 331.72 L 0 276.43 A 55.29 55.29 0 0 0 55.29 331.72" fill="#abab22"/><rect x="55.285714285714285" y="276.42857142857144" width="55.285714285714285" height="55.285714285714285" fill="#000000"/><path d="M 55.29 304.07 A 27.64 27.64 0 0 1  82.93 276.43 L 55.29 304.07 A 27.64 27.64 0 0 0 82.93 276.43" fill="#63470a"/><path d="M 387 331.72 A 55.29 55.29 0 0 1  442.29 276.43 L 387 331.72 A 55.29 55.29 0 0 0 442.29 276.43" fill="#c7c728"/><rect x="497.57142857142856" y="276.42857142857144" width="55.285714285714285" height="55.285714285714285" fill="#000000"/><path d="M 525.21 304.07 A 27.64 27.64 0 0 1  552.85 331.71 L 525.21 304.07 A 27.64 27.64 0 0 0 552.85 331.71" fill="#bd8714"/><path d="M 552.86 276.43 A 55.29 55.29 0 0 1  608.15 331.72 L 552.86 276.43 A 55.29 55.29 0 0 0 608.15 331.72" fill="#926910"/><rect x="276.42857142857144" y="331.7142857142857" width="55.285714285714285" height="55.285714285714285" fill="#000000"/><path d="M 304.07 359.34999999999997 A 27.64 27.64 0 0 1  331.71 331.71 L 304.07 359.34999999999997 A 27.64 27.64 0 0 0 331.71 331.71" fill="#db9d17"/><path d="M 552.86 331.71 A 55.29 55.29 0 0 1  608.15 387 L 552.86 331.71 A 55.29 55.29 0 0 0 608.15 387" fill="#79560d"/></g></svg>